<?xml version="1.0" standalone="no"?><!DOCTYPE svg PUBLIC "-//W3C//DTD SVG 1.1//EN" "http://www.w3.org/Graphics/SVG/1.1/DTD/svg11.dtd"><svg t="1588684324729" class="icon" viewBox="0 0 1024 1024" version="1.1" xmlns="http://www.w3.org/2000/svg" p-id="3791" xmlns:xlink="http://www.w3.org/1999/xlink" width="200" height="200"><defs><style type="text/css"></style></defs><path d="M853.333333 85.333333H170.666667c-46.933333 0-85.333333 38.4-85.333334 85.333334v682.666666c0 46.933333 38.4 85.333333 85.333334 85.333334h682.666666c46.933333 0 85.333333-38.4 85.333334-85.333334V170.666667c0-46.933333-38.4-85.333333-85.333334-85.333334z m-170.666666 298.666667v42.666667c0 25.6 17.066667 42.666667 42.666666 42.666666s42.666667 17.066667 42.666667 42.666667v128c0 72.533333-55.466667 128-128 128H384c-72.533333 0-128-55.466667-128-128V341.333333c0-72.533333 55.466667-128 128-128h170.666667c72.533333 0 128 55.466667 128 128v42.666667z m-256 42.666667h110.933333c25.6 0 42.666667-17.066667 42.666667-42.666667s-17.066667-42.666667-42.666667-42.666667H426.666667c-25.6 0-42.666667 17.066667-42.666667 42.666667s17.066667 42.666667 42.666667 42.666667z m170.666666 128h-170.666666c-25.6 0-42.666667 17.066667-42.666667 42.666666s17.066667 42.666667 42.666667 42.666667h170.666666c25.6 0 42.666667-17.066667 42.666667-42.666667s-17.066667-42.666667-42.666667-42.666666z" p-id="3792" fill="#1296db"></path></svg>